<svg width="33" height="33" viewBox="0 0 33 33" fill="none" xmlns="http://www.w3.org/2000/svg">
<rect x="0.984375" y="0.822266" width="32" height="32" fill="black"/>
<path d="M25.4141 21.0166C25.414 21.955 25.2093 22.801 24.7998 23.5518C24.3902 24.3024 23.8269 24.9002 23.1104 25.3438C22.3937 25.7703 21.5571 25.9834 20.6016 25.9834C20.0272 25.9834 19.4934 25.9041 18.999 25.75V23.1934C19.1214 23.3077 19.254 23.4106 19.3984 23.5C19.7738 23.7217 20.175 23.833 20.6016 23.833C21.0281 23.833 21.421 23.7217 21.7793 23.5C22.1374 23.2783 22.4193 22.9796 22.624 22.6045C22.8458 22.2292 22.9569 21.8102 22.957 21.3496V18.71C23.6925 18.4145 24.2128 17.6965 24.2129 16.8555C24.2127 16.0143 23.6927 15.2953 22.957 15V7.75586H25.4141V21.0166ZM13.3057 7.44922C13.9025 7.44924 14.454 7.53328 14.9609 7.7002V10.248C14.8317 10.1299 14.6896 10.0245 14.5342 9.93262C14.1588 9.71079 13.7493 9.59965 13.3057 9.59961C12.8619 9.59961 12.4516 9.71075 12.0762 9.93262C11.7181 10.1544 11.4278 10.4529 11.2061 10.8281C11.0014 11.2035 10.8994 11.6224 10.8994 12.083V15C10.1642 15.2955 9.64468 16.0145 9.64453 16.8555C9.64461 17.6963 10.1644 18.4143 10.8994 18.71V25.6758H8.44141V12.415C8.44146 11.4767 8.64628 10.6316 9.05566 9.88086C9.46521 9.13004 10.0378 8.5409 10.7715 8.11426C11.5052 7.67073 12.3502 7.44922 13.3057 7.44922ZM18.1953 21.3496C18.1953 21.3956 18.197 21.4412 18.1992 21.4863V25.4131C18.1555 25.3896 18.1103 25.3687 18.0674 25.3438C17.3507 24.9001 16.7865 24.3024 16.377 23.5518C15.9674 22.801 15.7628 21.955 15.7627 21.0166V18.8555H18.1953V21.3496ZM15.8652 8.11426C16.599 8.54091 17.1715 9.13001 17.5811 9.88086C17.9904 10.6316 18.1953 11.4767 18.1953 12.415V14.8555H15.7627V12.083C15.7627 12.0602 15.7613 12.0373 15.7607 12.0146V8.05566C15.7954 8.07536 15.8311 8.0936 15.8652 8.11426Z" fill="white"/>
<path d="M18.2061 25.6699C16.6935 24.7723 15.7658 23.1436 15.7656 21.3848V18.4531H18.2061V25.6699Z" fill="#78FCD6"/>
<path d="M15.7578 8.04883V8.04883C17.2525 8.78788 18.1984 10.3109 18.1984 11.9783V15.2657H15.7578V8.04883Z" fill="#78FCD6"/>
<path d="M11.8725 18.0234C11.2094 18.0234 10.6719 17.4859 10.6719 16.8228V16.8228C10.6719 16.1597 11.2094 15.6222 11.8725 15.6222H21.9887C22.6518 15.6222 23.1894 16.1597 23.1894 16.8228V16.8228C23.1894 17.4859 22.6518 18.0234 21.9887 18.0234H11.8725Z" fill="#78FCD6"/>
</svg>
