<svg width="17" height="17" viewBox="0 0 17 17" fill="none" xmlns="http://www.w3.org/2000/svg">
<rect x="0.984375" y="0.822266" width="16" height="16" fill="black"/>
<path d="M13.2129 10.9131C13.2129 11.3821 13.1108 11.8044 12.9062 12.1797C12.7015 12.5552 12.4189 12.8543 12.0605 13.0762C11.7022 13.2894 11.2843 13.3965 10.8066 13.3965C10.5167 13.3965 10.2473 13.356 9.99805 13.2773V11.9912C10.0616 12.0518 10.1294 12.1075 10.2051 12.1543C10.3928 12.2652 10.5933 12.3213 10.8066 12.3213C11.0199 12.3213 11.2163 12.2652 11.3955 12.1543C11.5746 12.0434 11.715 11.8937 11.8174 11.7061C11.9282 11.5184 11.9844 11.3094 11.9844 11.0791V9.75977C12.3501 9.61106 12.6084 9.2531 12.6084 8.83398C12.6084 8.41474 12.3503 8.05585 11.9844 7.90723V4.28223H13.2129V10.9131ZM7.1582 4.12891C7.45444 4.12891 7.72847 4.17057 7.98047 4.25293V5.52539C7.91724 5.4679 7.84929 5.41496 7.77344 5.37012C7.5857 5.25918 7.38007 5.2041 7.1582 5.2041C6.93648 5.20416 6.73157 5.25925 6.54395 5.37012C6.36484 5.48099 6.22029 5.63076 6.10938 5.81836C6.00703 6.00599 5.95514 6.21507 5.95508 6.44531V7.9043C5.58549 8.05117 5.32422 8.41208 5.32422 8.83398C5.32422 9.25577 5.58567 9.61574 5.95508 9.7627V13.2422H4.72656V6.6123C4.72656 6.14297 4.82938 5.72019 5.03418 5.34473C5.23897 4.96941 5.52477 4.67519 5.8916 4.46191C6.25842 4.24014 6.68052 4.12896 7.1582 4.12891ZM9.60352 10.2676H9.59766V13.1074C9.5782 13.0969 9.55821 13.0873 9.53906 13.0762C9.18075 12.8543 8.8991 12.5551 8.69434 12.1797C8.48971 11.8044 8.38772 11.3822 8.3877 10.9131V9.83398H9.60352V10.2676ZM8.43848 4.46191C8.80532 4.6752 9.09111 4.96939 9.2959 5.34473C9.5007 5.72019 9.60352 6.14297 9.60352 6.6123V7.83398H8.3877V6.44531C8.38769 6.40857 8.38372 6.37257 8.38086 6.33691V4.42969C8.40002 4.4405 8.41963 4.45052 8.43848 4.46191Z" fill="white"/>
<path d="M9.60254 13.2451C8.84635 12.7964 8.38297 11.9818 8.38281 11.1025V9.63672H9.60254V13.2451Z" fill="#78FCD6"/>
<path d="M8.375 4.43359V4.43359C9.12233 4.80312 9.59531 5.56463 9.59531 6.39833V8.04203H8.375V4.43359Z" fill="#78FCD6"/>
<path d="M6.43234 9.42188C6.1008 9.42188 5.83203 9.15311 5.83203 8.82156V8.82156C5.83203 8.49002 6.1008 8.22125 6.43234 8.22125H11.4905C11.822 8.22125 12.0908 8.49002 12.0908 8.82156V8.82156C12.0908 9.15311 11.822 9.42188 11.4905 9.42188H6.43234Z" fill="#78FCD6"/>
</svg>
