<svg width="101" height="101" viewBox="0 0 101 101" fill="none" xmlns="http://www.w3.org/2000/svg">
<rect x="0.984375" y="0.822266" width="100" height="100" fill="black"/>
<path d="M77.3369 63.916C77.3369 66.8492 76.6969 69.4894 75.417 71.8359C74.137 74.1825 72.3767 76.0489 70.1367 77.4355C67.8967 78.7688 65.2835 79.4355 62.2969 79.4355C60.4965 79.4355 58.8229 79.1906 57.2744 78.7061V70.707C57.6603 71.0695 58.0805 71.3931 58.5371 71.6758C59.7104 72.369 60.9636 72.7158 62.2969 72.7158C63.6301 72.7158 64.8566 72.369 65.9766 71.6758C67.0965 70.9825 67.9772 70.0492 68.6172 68.876C69.3105 67.7028 69.6572 66.3959 69.6572 64.9561V55.3428C71.2461 54.5054 72.3301 52.8389 72.3301 50.918C72.3301 48.9969 71.2464 47.3295 69.6572 46.4922V22.4756H77.3369V63.916ZM39.4971 21.5156C41.3588 21.5156 43.0803 21.7767 44.6621 22.2969V30.2529C44.2608 29.8867 43.8194 29.5605 43.3369 29.2754C42.1637 28.5821 40.8836 28.2354 39.4971 28.2354C38.1105 28.2354 36.8305 28.5822 35.6572 29.2754C34.5373 29.9687 33.6298 30.9019 32.9365 32.0752C32.2965 33.2485 31.9766 34.5561 31.9766 35.9961V46.4932C30.3881 47.3307 29.3047 48.9974 29.3047 50.918C29.3047 52.8384 30.3883 54.5042 31.9766 55.3418V78.4756H24.2969V37.0352C24.2969 34.102 24.9369 31.4618 26.2168 29.1152C27.4968 26.7687 29.2839 24.929 31.5771 23.5957C33.8704 22.2091 36.5105 21.5156 39.4971 21.5156ZM54.7773 59.8633H54.7744V77.6572C54.6409 77.5853 54.5082 77.5118 54.377 77.4355C52.137 76.0489 50.3767 74.1825 49.0967 71.8359C47.8167 69.4894 47.1768 66.8492 47.1768 63.916V55.918H54.7773V59.8633ZM47.4971 23.5957C49.7902 24.9289 51.5765 26.7689 52.8564 29.1152C54.1364 31.4618 54.7773 34.102 54.7773 37.0352V45.918H47.1768V35.9961C47.1768 35.8296 47.1714 35.6649 47.1621 35.502V23.4014C47.2744 23.465 47.3865 23.5289 47.4971 23.5957Z" fill="white"/>
<path d="M54.7969 78.4639C50.0699 75.6587 47.1719 70.5689 47.1719 65.0723V55.9141H54.7969V78.4639Z" fill="#78FCD6"/>
<path d="M47.1523 23.4043C51.8232 25.7138 54.7793 30.4733 54.7793 35.6839V45.957H47.1523V23.4043Z" fill="#78FCD6"/>
<path d="M35.0098 54.5742C32.9376 54.5742 31.2578 52.8944 31.2578 50.8223C31.2578 48.7501 32.9376 47.0703 35.0098 47.0703H66.623C68.6952 47.0703 70.375 48.7501 70.375 50.8223C70.375 52.8944 68.6952 54.5742 66.623 54.5742H35.0098Z" fill="#78FCD6"/>
</svg>
